HIERARCHY
ROOT hip
{
  OFFSET 0 90.174 2.4664
  CHANNELS 6 Xposition Yposition Zposition Zrotation Xrotation Yrotation
  JOINT abdomen
  {
    OFFSET 0 -1.186 -1.5018
    CHANNELS 6 Xposition Yposition Zposition Zrotation Xrotation Yrotation
    JOINT abdomen2
    {
      OFFSET 0 9.964 0.2134
      CHANNELS 6 Xposition Yposition Zposition Zrotation Xrotation Yrotation
      JOINT chest
      {
        OFFSET 0 13.134 -3.2573
        CHANNELS 6 Xposition Yposition Zposition Zrotation Xrotation Yrotation
        JOINT neck
        {
          OFFSET 0 20.686 -1.6905
          CHANNELS 6 Xposition Yposition Zposition Zrotation Xrotation Yrotation
          JOINT head
          {
            OFFSET 0 7.238 -0.1237
            CHANNELS 6 Xposition Yposition Zposition Zrotation Xrotation Yrotation
            End Site
            {
              OFFSET 0 0 0
            }
          }
        }
        JOINT lCollar
        {
          OFFSET 1.7069 20.075 5.0056
          CHANNELS 6 Xposition Yposition Zposition Zrotation Xrotation Yrotation
          JOINT lShldr
          {
            OFFSET 13.6458 -0.047 -4.849
            CHANNELS 6 Xposition Yposition Zposition Zrotation Xrotation Yrotation
            JOINT lForeArm
            {
              OFFSET 28.3255 -0.9759 2.2888
              CHANNELS 6 Xposition Yposition Zposition Zrotation Xrotation Yrotation
              JOINT lHand
              {
                OFFSET 22.1583 -0.53 10.8316
                CHANNELS 6 Xposition Yposition Zposition Zrotation Xrotation Yrotation
                JOINT lThumb1
                {
                  OFFSET 0.786 0.112 2.5817
                  CHANNELS 6 Xposition Yposition Zposition Zrotation Xrotation Yrotation
                  JOINT lThumb2
                  {
                    OFFSET 0.3601 -0.878 4.2331
                    CHANNELS 6 Xposition Yposition Zposition Zrotation Xrotation Yrotation
                    JOINT lThumb2_End
                    {
                      OFFSET 1.8127 -1.216 2.2227
                      CHANNELS 6 Xposition Yposition Zposition Zrotation Xrotation Yrotation
                      End Site
                      {
                        OFFSET 0.0181 -0.0122 0.0222
                      }
                    }
                  }
                }
                JOINT lCarpal1
                {
                  OFFSET 0.9571 1.114 1.7695
                  CHANNELS 6 Xposition Yposition Zposition Zrotation Xrotation Yrotation
                  JOINT lIndex1
                  {
                    OFFSET 4.1246 0.487 4.1451
                    CHANNELS 6 Xposition Yposition Zposition Zrotation Xrotation Yrotation
                    JOINT lIndex2
                    {
                      OFFSET 3.4052 -1.454 2.7682
                      CHANNELS 6 Xposition Yposition Zposition Zrotation Xrotation Yrotation
                      JOINT lIndex2_End
                      {
                        OFFSET 1.4531 -1.795 1.2713
                        CHANNELS 6 Xposition Yposition Zposition Zrotation Xrotation Yrotation
                        End Site
                        {
                          OFFSET 0.0145 -0.0179 0.0127
                        }
                      }
                    }
                  }
                  JOINT lMid1
                  {
                    OFFSET 5.6954 0.21 2.1184
                    CHANNELS 6 Xposition Yposition Zposition Zrotation Xrotation Yrotation
                    JOINT lMid2
                    {
                      OFFSET 3.9766 -1.54 2.3863
                      CHANNELS 6 Xposition Yposition Zposition Zrotation Xrotation Yrotation
                      JOINT lMid2_End
                      {
                        OFFSET 1.4042 -1.926 1.125
                        CHANNELS 6 Xposition Yposition Zposition Zrotation Xrotation Yrotation
                        End Site
                        {
                          OFFSET 0.014 -0.0193 0.0113
                        }
                      }
                    }
                  }
                }
                JOINT lCarpal2
                {
                  OFFSET 2.0956 0.66 -0.3894
                  CHANNELS 6 Xposition Yposition Zposition Zrotation Xrotation Yrotation
                  JOINT lRing1
                  {
                    OFFSET 5.0395 -0.09 2.4971
                    CHANNELS 6 Xposition Yposition Zposition Zrotation Xrotation Yrotation
                    JOINT lRing2
                    {
                      OFFSET 3.7921 -1.552 1.4806
                      CHANNELS 6 Xposition Yposition Zposition Zrotation Xrotation Yrotation
                      JOINT lRing2_End
                      {
                        OFFSET 1.4655 -1.808 0.9609
                        CHANNELS 6 Xposition Yposition Zposition Zrotation Xrotation Yrotation
                        End Site
                        {
                          OFFSET 0.0147 -0.0181 0.0096
                        }
                      }
                    }
                  }
                  JOINT lPinky1
                  {
                    OFFSET 4.9141 -1.269 0.3591
                    CHANNELS 6 Xposition Yposition Zposition Zrotation Xrotation Yrotation
                    JOINT lPinky2
                    {
                      OFFSET 3.1477 -1.685 0.8462
                      CHANNELS 6 Xposition Yposition Zposition Zrotation Xrotation Yrotation
                      JOINT lPinky2_End
                      {
                        OFFSET 0.8055 -1.585 0.7955
                        CHANNELS 6 Xposition Yposition Zposition Zrotation Xrotation Yrotation
                        End Site
                        {
                          OFFSET 0.0081 -0.0158 0.008
                        }
                      }
                    }
                  }
                }
              }
            }
          }
        }
        JOINT rCollar
        {
          OFFSET -1.7069 20.075 5.0056
          CHANNELS 6 Xposition Yposition Zposition Zrotation Xrotation Yrotation
          JOINT rShldr
          {
            OFFSET -13.6458 -0.047 -4.849
            CHANNELS 6 Xposition Yposition Zposition Zrotation Xrotation Yrotation
            JOINT rForeArm
            {
              OFFSET -28.3255 -0.9759 2.2888
              CHANNELS 6 Xposition Yposition Zposition Zrotation Xrotation Yrotation
              JOINT rHand
              {
                OFFSET -22.1583 -0.53 10.8316
                CHANNELS 6 Xposition Yposition Zposition Zrotation Xrotation Yrotation
                JOINT rThumb1
                {
                  OFFSET -0.786 0.112 2.5817
                  CHANNELS 6 Xposition Yposition Zposition Zrotation Xrotation Yrotation
                  JOINT rThumb2
                  {
                    OFFSET -0.3601 -0.878 4.2331
                    CHANNELS 6 Xposition Yposition Zposition Zrotation Xrotation Yrotation
                    JOINT rThumb2_End
                    {
                      OFFSET -1.8127 -1.216 2.2227
                      CHANNELS 6 Xposition Yposition Zposition Zrotation Xrotation Yrotation
                      End Site
                      {
                        OFFSET -0.0181 -0.0122 0.0222
                      }
                    }
                  }
                }
                JOINT rCarpal1
                {
                  OFFSET -0.9571 1.114 1.7695
                  CHANNELS 6 Xposition Yposition Zposition Zrotation Xrotation Yrotation
                  JOINT rIndex1
                  {
                    OFFSET -4.1246 0.487 4.1451
                    CHANNELS 6 Xposition Yposition Zposition Zrotation Xrotation Yrotation
                    JOINT rIndex2
                    {
                      OFFSET -3.4052 -1.454 2.7682
                      CHANNELS 6 Xposition Yposition Zposition Zrotation Xrotation Yrotation
                      JOINT rIndex2_End
                      {
                        OFFSET -1.4531 -1.795 1.2713
                        CHANNELS 6 Xposition Yposition Zposition Zrotation Xrotation Yrotation
                        End Site
                        {
                          OFFSET -0.0145 -0.018 0.0127
                        }
                      }
                    }
                  }
                  JOINT rMid1
                  {
                    OFFSET -5.6954 0.21 2.1184
                    CHANNELS 6 Xposition Yposition Zposition Zrotation Xrotation Yrotation
                    JOINT rMid2
                    {
                      OFFSET -3.9766 -1.54 2.3863
                      CHANNELS 6 Xposition Yposition Zposition Zrotation Xrotation Yrotation
                      JOINT rMid2_End
                      {
                        OFFSET -1.4042 -1.926 1.125
                        CHANNELS 6 Xposition Yposition Zposition Zrotation Xrotation Yrotation
                        End Site
                        {
                          OFFSET -0.014 -0.0193 0.0113
                        }
                      }
                    }
                  }
                }
                JOINT rCarpal2
                {
                  OFFSET -2.0956 0.66 -0.3894
                  CHANNELS 6 Xposition Yposition Zposition Zrotation Xrotation Yrotation
                  JOINT rRing1
                  {
                    OFFSET -5.0395 -0.09 2.4971
                    CHANNELS 6 Xposition Yposition Zposition Zrotation Xrotation Yrotation
                    JOINT rRing2
                    {
                      OFFSET -3.7921 -1.552 1.4806
                      CHANNELS 6 Xposition Yposition Zposition Zrotation Xrotation Yrotation
                      JOINT rRing2_End
                      {
                        OFFSET -1.4655 -1.808 0.9609
                        CHANNELS 6 Xposition Yposition Zposition Zrotation Xrotation Yrotation
                        End Site
                        {
                          OFFSET -0.0147 -0.0181 0.0096
                        }
                      }
                    }
                  }
                  JOINT rPinky1
                  {
                    OFFSET -4.9141 -1.269 0.3592
                    CHANNELS 6 Xposition Yposition Zposition Zrotation Xrotation Yrotation
                    JOINT rPinky2
                    {
                      OFFSET -3.1477 -1.685 0.8462
                      CHANNELS 6 Xposition Yposition Zposition Zrotation Xrotation Yrotation
                      JOINT rPinky2_End
                      {
                        OFFSET -0.8055 -1.585 0.7955
                        CHANNELS 6 Xposition Yposition Zposition Zrotation Xrotation Yrotation
                        End Site
                        {
                          OFFSET -0.0081 -0.0158 0.008
                        }
                      }
                    }
                  }
                }
              }
            }
          }
        }
      }
    }
  }
  JOINT lThigh
  {
    OFFSET 8.367 -8.2066 0.5982
    CHANNELS 6 Xposition Yposition Zposition Zrotation Xrotation Yrotation
    JOINT lShin
    {
      OFFSET 2.1923 -43.463 -0.4932
      CHANNELS 6 Xposition Yposition Zposition Zrotation Xrotation Yrotation
      JOINT lFoot
      {
        OFFSET 0.7333 -45.8593 -2.6451
        CHANNELS 6 Xposition Yposition Zposition Zrotation Xrotation Yrotation
        End Site
        {
          OFFSET 2.6618 -4.2699 12.3931
        }
      }
    }
  }
  JOINT rThigh
  {
    OFFSET -8.367 -8.2066 0.5982
    CHANNELS 6 Xposition Yposition Zposition Zrotation Xrotation Yrotation
    JOINT rShin
    {
      OFFSET -2.1923 -43.463 -0.4931
      CHANNELS 6 Xposition Yposition Zposition Zrotation Xrotation Yrotation
      JOINT rFoot
      {
        OFFSET -0.7333 -45.8593 -2.6451
        CHANNELS 6 Xposition Yposition Zposition Zrotation Xrotation Yrotation
        End Site
        {
          OFFSET -2.6618 -4.2699 12.3931
        }
      }
    }
  }
}
MOTION
Frames:	4
Frame Time:	0.0333333
0 90.174 2.4664 0 0 -0 0 -1.186 -1.5018 0 0 -0 0 9.964 0.2134 0 0 -0 0 13.134 -3.2573 0 0 -0 0 20.686 -1.6905 0 0 -0 0 7.238 -0.1237 0 0 -0 1.7069 20.075 5.0056 0 0 -0 13.6458 -0.047 -4.849 1.66051 0.0835086 5.75766 28.3255 -0.9759 2.2888 -0.0175111 0.895433 15.7816 22.1583 -0.53 10.8316 7.95139e-016 -1.98785e-016 -0 0.786 0.112 2.5817 5.46658e-016 -3.97569e-016 -0 0.3601 -0.878 4.2331 5.96354e-016 0 -0 1.8127 -1.216 2.2227 3.97569e-016 1.98785e-016 9.54166e-015 0.9571 1.114 1.7695 1.49089e-016 -3.97569e-016 -0 4.1246 0.487 4.1451 6.4605e-016 0 3.18055e-015 3.4052 -1.454 2.7682 5.96354e-016 0 3.18055e-015 1.4531 -1.795 1.2713 8.94531e-016 -1.98785e-016 6.36111e-015 5.6954 0.21 2.1184 6.4605e-016 0 3.18055e-015 3.9766 -1.54 2.3863 5.96354e-016 0 3.18055e-015 1.4042 -1.926 1.125 8.94531e-016 -1.98785e-016 6.36111e-015 2.0956 0.66 -0.3894 1.49089e-016 -3.97569e-016 -0 5.0395 -0.09 2.4971 6.4605e-016 0 3.18055e-015 3.7921 -1.552 1.4806 5.96354e-016 0 3.18055e-015 1.4655 -1.808 0.9609 8.94531e-016 -1.98785e-016 6.36111e-015 4.9141 -1.269 0.3591 6.4605e-016 0 3.18055e-015 3.1477 -1.685 0.8462 5.96354e-016 0 3.18055e-015 0.8055 -1.585 0.7955 8.94531e-016 -1.98785e-016 6.36111e-015 -1.7069 20.075 5.0056 0 0 -0 -13.6458 -0.047 -4.849 -1.4496 0.0636048 -5.0245 -28.3255 -0.9759 2.2888 -1.74811 1.20616 -16.8394 -22.1583 -0.53 10.8316 -1.19271e-015 1.98785e-016 -3.18055e-015 -0.786 0.112 2.5817 -3.97569e-016 1.98785e-016 -3.18055e-015 -0.3601 -0.878 4.2331 -2.98177e-016 1.98785e-016 -3.18055e-015 -1.8127 -1.216 2.2227 -2.98177e-016 3.97569e-016 -0 -0.9571 1.114 1.7695 4.96962e-016 0 -6.36111e-015 -4.1246 0.487 4.1451 -9.93923e-017 3.97569e-016 -0 -3.4052 -1.454 2.7682 -8.94531e-016 5.96354e-016 -0 -1.4531 -1.795 1.2713 -3.97569e-016 3.97569e-016 -0 -5.6954 0.21 2.1184 -9.93923e-017 3.97569e-016 -0 -3.9766 -1.54 2.3863 -8.94531e-016 5.96354e-016 -0 -1.4042 -1.926 1.125 -3.97569e-016 3.97569e-016 -0 -2.0956 0.66 -0.3894 4.96962e-016 0 -6.36111e-015 -5.0395 -0.09 2.4971 -9.93923e-017 3.97569e-016 -0 -3.7921 -1.552 1.4806 -8.94531e-016 5.96354e-016 -0 -1.4655 -1.808 0.9609 -3.97569e-016 3.97569e-016 -0 -4.9141 -1.269 0.3592 -9.93923e-017 3.97569e-016 -0 -3.1477 -1.685 0.8462 -8.94531e-016 5.96354e-016 -0 -0.8055 -1.585 0.7955 -3.97569e-016 3.97569e-016 -0 8.367 -8.2066 0.5982 -4.66115 -1.03232 0.120763 2.1923 -43.463 -0.4932 0.00990601 1.55097 0.177175 0.7333 -45.8593 -2.6451 4.65196 -0.54114 -0.255042 -8.367 -8.2066 0.5982 4.66115 -1.03222 -0.120763 -2.1923 -43.463 -0.4931 -0.00990459 1.5509 -0.177176 -0.7333 -45.8593 -2.6451 -4.65196 -0.541171 0.255041 
-0.538311 58.9104 -4.08004 -0 -28.1228 -0 0 -1.186 -1.5018 -0.0278092 2.73032 -0.0381306 -1.11022e-016 9.964 0.2134 -0.0538888 5.46065 -0.0750608 0 13.134 -3.2573 -0.0538888 5.46064 -0.0750608 0 20.686 -1.6905 3.01205e-007 6.70039 1.53058e-007 1.11022e-016 7.238 -0.1237 -2.40577e-008 3.35131 3.2039e-008 1.7069 20.075 5.0056 -1.78678 -1.03345 2.72135 13.6458 -0.047 -4.849 -25.2216 1.36277 16.6541 28.3255 -0.9759 2.2888 8.3701 8.10201 -12.2554 22.1583 -0.53 10.8316 2.17019 7.70963 -1.78622 0.786 0.112 2.5817 -4.65117e-009 4.20435e-007 7.23963e-008 0.3601 -0.878 4.2331 -5.327e-007 5.93737e-007 1.62079e-007 1.8127 -1.216 2.2227 7.83957e-015 7.95139e-016 8.94531e-016 0.9571 1.114 1.7695 -7.80851e-015 -7.95139e-016 -9.93923e-017 4.1246 0.487 4.1451 -4.65117e-009 4.20435e-007 7.23963e-008 3.4052 -1.454 2.7682 -5.327e-007 5.93737e-007 1.62079e-007 1.4531 -1.795 1.2713 4.11236e-015 0 4.96962e-016 5.6954 0.21 2.1184 -4.65117e-009 4.20435e-007 7.23963e-008 3.9766 -1.54 2.3863 -5.327e-007 5.93737e-007 1.62079e-007 1.4042 -1.926 1.125 4.11236e-015 0 4.96962e-016 2.0956 0.66 -0.3894 -7.80851e-015 -7.95139e-016 -9.93923e-017 5.0395 -0.09 2.4971 -4.65117e-009 4.20435e-007 7.23963e-008 3.7921 -1.552 1.4806 -5.327e-007 5.93737e-007 1.62079e-007 1.4655 -1.808 0.9609 4.11236e-015 0 4.96962e-016 4.9141 -1.269 0.3591 -4.65117e-009 4.20435e-007 7.23963e-008 3.1477 -1.685 0.8462 -5.327e-007 5.93737e-007 1.62079e-007 0.8055 -1.585 0.7955 4.11236e-015 0 4.96962e-016 -1.7069 20.075 5.0056 1.93068 -0.894544 -2.52205 -13.6458 -0.047 -4.849 25.3355 1.33399 -15.8894 -28.3255 -0.9759 2.2888 -10.1243 7.5444 11.2762 -22.1583 -0.53 10.8316 -2.31243 7.40788 2.00569 -0.786 0.112 2.5817 -8.95078e-010 -2.10837e-007 3.2608e-008 -0.3601 -0.878 4.2331 1.28827e-006 -6.18129e-009 -1.91175e-008 -1.8127 -1.216 2.2227 -1.34176e-006 -1.54629e-007 1.77103e-006 -0.9571 1.114 1.7695 5.65294e-016 -7.95139e-016 -4.96962e-016 -4.1246 0.487 4.1451 -8.95078e-010 -2.10837e-007 3.2608e-008 -3.4052 -1.454 2.7682 1.28827e-006 -6.18129e-009 -1.91175e-008 -1.4531 -1.795 1.2713 -1.34176e-006 -1.54629e-007 1.77103e-006 -5.6954 0.21 2.1184 -8.95078e-010 -2.10837e-007 3.2608e-008 -3.9766 -1.54 2.3863 1.28827e-006 -6.18129e-009 -1.91175e-008 -1.4042 -1.926 1.125 -1.34176e-006 -1.54629e-007 1.77103e-006 -2.0956 0.66 -0.3894 5.65294e-016 -7.95139e-016 -4.96962e-016 -5.0395 -0.09 2.4971 -8.95078e-010 -2.10837e-007 3.2608e-008 -3.7921 -1.552 1.4806 1.28827e-006 -6.18129e-009 -1.91175e-008 -1.4655 -1.808 0.9609 -1.34176e-006 -1.54629e-007 1.77103e-006 -4.9141 -1.269 0.3592 -8.95078e-010 -2.10837e-007 3.2608e-008 -3.1477 -1.685 0.8462 1.28827e-006 -6.18129e-009 -1.91175e-008 -0.8055 -1.585 0.7955 -1.34176e-006 -1.54629e-007 1.77103e-006 8.367 -8.2066 0.5982 14.3968 -4.82105 -6.75898 2.1923 -43.463 -0.4932 -1.83328 -2.23116 0.098235 0.7333 -45.8593 -2.6451 10.0868 7.34276 10.9616 -8.367 -8.2066 0.5982 -9.36571 -50.545 -13.3141 -2.1923 -43.463 -0.4931 0.365654 37.4941 -3.65803 -0.7333 -45.8593 -2.6451 -11.3103 18.1685 14.6283 
-1.16757 23.9181 -8.08855 -0 -56.2455 -0 0 -1.186 -1.5018 -0.0478355 5.4605 -0.0801459 -2.22045e-016 9.964 0.2134 -0.0885649 10.9211 -0.156764 0 13.134 -3.2573 -0.0885649 10.9211 -0.156764 0 20.686 -1.6905 -3.29853e-006 13.4011 1.28892e-006 0 7.238 -0.1237 3.09091e-008 6.70262 -1.15807e-007 1.7069 20.075 5.0056 -3.47549 -2.05986 5.44534 13.6458 -0.047 -4.849 -52.5217 2.52219 27.5661 28.3255 -0.9759 2.2888 22.8413 8.30605 -40.6036 22.1583 -0.53 10.8316 4.8386 15.2263 -4.07469 0.786 0.112 2.5817 3.97569e-016 -2.78299e-015 -0 0.3601 -0.878 4.2331 -4.37326e-015 -1.19271e-015 3.18055e-015 1.8127 -1.216 2.2227 -1.59028e-015 -1.19271e-015 -0 0.9571 1.114 1.7695 3.57812e-015 -1.19271e-015 -0 4.1246 0.487 4.1451 1.98785e-015 8.74653e-015 9.54166e-015 3.4052 -1.454 2.7682 -2.78299e-015 -4.37326e-015 -0 1.4531 -1.795 1.2713 -1.98785e-015 -2.78299e-015 3.18055e-015 5.6954 0.21 2.1184 1.98785e-015 8.74653e-015 9.54166e-015 3.9766 -1.54 2.3863 -2.78299e-015 -4.37326e-015 -0 1.4042 -1.926 1.125 -1.98785e-015 -2.78299e-015 3.18055e-015 2.0956 0.66 -0.3894 3.57812e-015 -1.19271e-015 -0 5.0395 -0.09 2.4971 1.98785e-015 8.74653e-015 9.54166e-015 3.7921 -1.552 1.4806 -2.78299e-015 -4.37326e-015 -0 1.4655 -1.808 0.9609 -1.98785e-015 -2.78299e-015 3.18055e-015 4.9141 -1.269 0.3591 1.98785e-015 8.74653e-015 9.54166e-015 3.1477 -1.685 0.8462 -2.78299e-015 -4.37326e-015 -0 0.8055 -1.585 0.7955 -1.98785e-015 -2.78299e-015 3.18055e-015 -1.7069 20.075 5.0056 3.78267 -1.78383 -5.04594 -13.6458 -0.047 -4.849 52.5416 2.48403 -26.7696 -28.3255 -0.9759 2.2888 -24.1445 7.25211 39.4906 -22.1583 -0.53 10.8316 -5.13263 14.6103 4.49025 -0.786 0.112 2.5817 -3.57812e-015 4.37326e-015 3.18055e-015 -0.3601 -0.878 4.2331 1.48734e-006 -4.26062e-007 -2.85493e-006 -1.8127 -1.216 2.2227 -2.76492e-006 1.5142e-006 7.9496e-007 -0.9571 1.114 1.7695 -3.97569e-016 3.18055e-015 3.18055e-015 -4.1246 0.487 4.1451 -2.5842e-015 3.97569e-016 -3.18055e-015 -3.4052 -1.454 2.7682 1.48734e-006 -4.26062e-007 -2.85493e-006 -1.4531 -1.795 1.2713 -2.76492e-006 1.5142e-006 7.9496e-007 -5.6954 0.21 2.1184 -2.5842e-015 3.97569e-016 -3.18055e-015 -3.9766 -1.54 2.3863 1.48734e-006 -4.26062e-007 -2.85493e-006 -1.4042 -1.926 1.125 -2.76492e-006 1.5142e-006 7.9496e-007 -2.0956 0.66 -0.3894 -3.97569e-016 3.18055e-015 3.18055e-015 -5.0395 -0.09 2.4971 -2.5842e-015 3.97569e-016 -3.18055e-015 -3.7921 -1.552 1.4806 1.48734e-006 -4.26062e-007 -2.85493e-006 -1.4655 -1.808 0.9609 -2.76492e-006 1.5142e-006 7.9496e-007 -4.9141 -1.269 0.3592 -2.5842e-015 3.97569e-016 -3.18055e-015 -3.1477 -1.685 0.8462 1.48734e-006 -4.26062e-007 -2.85493e-006 -0.8055 -1.585 0.7955 -2.76492e-006 1.5142e-006 7.9496e-007 8.367 -8.2066 0.5982 32.4849 -9.82246 -13.7598 2.1923 -43.463 -0.4932 -3.67932 -2.53363 0.186941 0.7333 -45.8593 -2.6451 12.8532 12.457 22.6395 -8.367 -8.2066 0.5982 -130.971 -70.9756 -125.579 -2.1923 -43.463 -0.4931 4.66451 74.5187 -9.23352 -0.7333 -45.8593 -2.6451 -27.0959 33.1189 30.3361 
-2.23674 -1.13107 -8.27612 -0 -76.0169 -0 0 -1.186 -1.5018 -0.0568578 7.35883 -0.112234 0 9.964 0.2134 -0.100297 14.7178 -0.219789 4.44089e-016 13.134 -3.2573 -0.100297 14.7177 -0.219789 4.44089e-016 20.686 -1.6905 1.32147e-006 17.9983 -3.2517e-007 0 7.238 -0.1237 -1.82544e-008 8.99857 -1.47265e-008 1.7069 20.075 5.0056 -4.45692 -2.68158 7.38724 13.6458 -0.047 -4.849 -71.9543 3.1687 35.2783 28.3255 -0.9759 2.2888 33.353 2.67864 -59.1503 22.1583 -0.53 10.8316 6.989 20.4193 -5.98812 0.786 0.112 2.5817 -1.98785e-015 4.37326e-015 -3.18055e-015 0.3601 -0.878 4.2331 1.98785e-015 8.34896e-015 -0 1.8127 -1.216 2.2227 1.59028e-015 -7.95139e-016 3.18055e-015 0.9571 1.114 1.7695 -1.98785e-015 4.37326e-015 -3.18055e-015 4.1246 0.487 4.1451 3.57812e-015 3.97569e-015 6.36111e-015 3.4052 -1.454 2.7682 -2.38542e-015 8.54774e-015 -6.36111e-015 1.4531 -1.795 1.2713 -3.57812e-015 2.18663e-015 6.36111e-015 5.6954 0.21 2.1184 3.57812e-015 3.97569e-015 6.36111e-015 3.9766 -1.54 2.3863 -2.38542e-015 8.54774e-015 -6.36111e-015 1.4042 -1.926 1.125 -3.57812e-015 2.18663e-015 6.36111e-015 2.0956 0.66 -0.3894 -1.98785e-015 4.37326e-015 -3.18055e-015 5.0395 -0.09 2.4971 3.57812e-015 3.97569e-015 6.36111e-015 3.7921 -1.552 1.4806 -2.38542e-015 8.54774e-015 -6.36111e-015 1.4655 -1.808 0.9609 -3.57812e-015 2.18663e-015 6.36111e-015 4.9141 -1.269 0.3591 3.57812e-015 3.97569e-015 6.36111e-015 3.1477 -1.685 0.8462 -2.38542e-015 8.54774e-015 -6.36111e-015 0.8055 -1.585 0.7955 -3.57812e-015 2.18663e-015 6.36111e-015 -1.7069 20.075 5.0056 4.8862 -2.31423 -6.84975 -13.6458 -0.047 -4.849 71.9087 3.12312 -34.4603 -28.3255 -0.9759 2.2888 -34.2769 1.58802 57.9585 -22.1583 -0.53 10.8316 -7.38449 19.5814 6.5243 -0.786 0.112 2.5817 1.55947e-006 2.9245e-006 -6.46748e-007 -0.3601 -0.878 4.2331 1.55947e-006 2.9245e-006 -6.46748e-007 -1.8127 -1.216 2.2227 2.24199e-006 6.82514e-007 -5.78288e-007 -0.9571 1.114 1.7695 2.64834e-031 -4.77083e-015 3.18055e-015 -4.1246 0.487 4.1451 1.55947e-006 2.9245e-006 -6.46748e-007 -3.4052 -1.454 2.7682 1.55947e-006 2.9245e-006 -6.46748e-007 -1.4531 -1.795 1.2713 2.24199e-006 6.82514e-007 -5.78288e-007 -5.6954 0.21 2.1184 1.55947e-006 2.9245e-006 -6.46748e-007 -3.9766 -1.54 2.3863 1.55947e-006 2.9245e-006 -6.46748e-007 -1.4042 -1.926 1.125 2.24199e-006 6.82514e-007 -5.78288e-007 -2.0956 0.66 -0.3894 2.64834e-031 -4.77083e-015 3.18055e-015 -5.0395 -0.09 2.4971 1.55947e-006 2.9245e-006 -6.46748e-007 -3.7921 -1.552 1.4806 1.55947e-006 2.9245e-006 -6.46748e-007 -1.4655 -1.808 0.9609 2.24199e-006 6.82514e-007 -5.78288e-007 -4.9141 -1.269 0.3592 1.55947e-006 2.9245e-006 -6.46748e-007 -3.1477 -1.685 0.8462 1.55947e-006 2.9245e-006 -6.46748e-007 -0.8055 -1.585 0.7955 2.24199e-006 6.82514e-007 -5.78288e-007 8.367 -8.2066 0.5982 44.9401 -12.3389 -18.715 2.1923 -43.463 -0.4932 -4.97696 -2.65052 0.200952 0.7333 -45.8593 -2.6451 13.1184 14.2677 31.3079 -8.367 -8.2066 0.5982 -171.995 -41.1395 -155.04 -2.1923 -43.463 -0.4931 172.248 77.6059 -179.843 -0.7333 -45.8593 -2.6451 -44.0884 38.7662 44.5605 
